<?xml version="1.0" standalone="no"?>
<!DOCTYPE svg PUBLIC "-//W3C//DTD SVG 1.1//EN" "http://www.w3.org/Graphics/SVG/1.1/DTD/svg11.dtd" >
<svg xmlns="http://www.w3.org/2000/svg" xmlns:xlink="http://www.w3.org/1999/xlink" version="1.1">
<metadata></metadata>
<defs>
<font id="gt-america-extended-thin-webfont" horiz-adv-x="1699" >
<font-face units-per-em="2048" ascent="1638" descent="-410" />
<missing-glyph horiz-adv-x="702" />
<glyph unicode="&#xfb01;" horiz-adv-x="1366" d="M59 936v88h248v154q0 158 82 240.5t240 82.5q76 0 145 -16v-92q-76 14 -137 14q-119 0 -172 -56.5t-53 -179.5v-147h362v-88h-362v-936h-105v936h-248zM1034 1200v238h119v-238h-119zM1040 0v1024h105v-1024h-105z" />
<glyph unicode="&#xfb02;" horiz-adv-x="1386" d="M59 936v88h248v154q0 158 82 240.5t240 82.5q76 0 145 -16v-92q-76 14 -137 14q-119 0 -172 -56.5t-53 -179.5v-147h362v-88h-362v-936h-105v936h-248zM1050 0v1485h105v-1485h-105z" />
<glyph horiz-adv-x="0" />
<glyph horiz-adv-x="0" />
<glyph unicode="&#xd;" horiz-adv-x="0" />
<glyph unicode=" "  horiz-adv-x="702" />
<glyph unicode="&#x09;" horiz-adv-x="702" />
<glyph unicode="&#xa0;" horiz-adv-x="702" />
<glyph unicode="!" horiz-adv-x="626" d="M242 0v205h141v-205h-141zM246 1485h135l-29 -1098h-80z" />
<glyph unicode="&#x22;" horiz-adv-x="724" d="M172 1454h115l-21 -481h-71zM438 1454h115l-21 -481h-71z" />
<glyph unicode="#" horiz-adv-x="1384" d="M35 442v82h299l72 375h-289v82h305l82 438h98l-82 -438h443l81 438h99l-82 -438h287v-82h-304l-71 -375h305v-82h-320l-84 -442h-98l84 442h-442l-84 -442h-98l83 442h-284zM432 524h442l72 375h-442z" />
<glyph unicode="$" horiz-adv-x="1470" d="M96 426l117 16q23 -174 143.5 -269t331.5 -112v633l-123 17q-211 35 -312 129t-101 252q0 168 141 265t395 103v174h80v-174q252 -10 390 -111.5t167 -304.5l-117 -24q-25 170 -130 253t-310 91v-578l137 -20q236 -39 342.5 -134t106.5 -272q0 -188 -153.5 -291.5 t-432.5 -105.5v-178h-80v180q-264 14 -414.5 130t-177.5 331zM268 1096q0 -119 83 -187.5t270 -101.5l67 -10v569q-205 -4 -312.5 -72.5t-107.5 -197.5zM768 59q229 0 348 76t119 223q0 135 -85 206t-296 108l-86 12v-625z" />
<glyph unicode="%" horiz-adv-x="1759" d="M66 1106q0 166 101 264t267 98q162 0 264.5 -101t102.5 -265t-102.5 -263.5t-264.5 -99.5q-166 0 -267 99.5t-101 267.5zM158 1106q0 -135 74.5 -210t201.5 -75q125 0 199 75t74 206t-75 207.5t-198 76.5q-125 0 -200.5 -74.5t-75.5 -205.5zM301 -35l1042 1514h111 l-1042 -1514h-111zM958 338q0 166 101.5 264t267.5 98q162 0 264.5 -101t102.5 -265t-102.5 -263.5t-264.5 -99.5q-166 0 -267.5 99.5t-101.5 267.5zM1051 338q0 -135 74.5 -210t201.5 -75q125 0 198.5 75t73.5 206t-74.5 207.5t-197.5 76.5q-125 0 -200.5 -74.5 t-75.5 -205.5z" />
<glyph unicode="&#x26;" horiz-adv-x="1517" d="M78 350q0 129 74.5 219t238.5 187l33 18q-119 125 -170 216t-51 194q0 147 96 236t260 89q162 0 259 -86t97 -231q0 -119 -63.5 -214t-175.5 -163l-92 -53l481 -481q78 96 125 226t57 286l103 -11q-8 -168 -63.5 -314t-149.5 -257q76 -72 135 -101.5t127 -29.5 q53 0 92 12v-98q-49 -14 -109 -14q-160 0 -321 155q-96 -86 -219 -132t-262 -46q-158 0 -271.5 50t-172 139.5t-58.5 203.5zM188 358q0 -141 114 -223t286 -82q115 0 217 39t186 113l-502 504l-40 -25q-137 -84 -199 -156.5t-62 -169.5zM313 1186q0 -86 45 -165t160 -194 l92 54q94 53 144.5 132t50.5 177q0 109 -63.5 170t-184.5 61q-119 0 -180.5 -60.5t-63.5 -174.5z" />
<glyph unicode="'" horiz-adv-x="458" d="M172 1454h115l-21 -481h-71z" />
<glyph unicode="(" horiz-adv-x="647" d="M137 674q0 252 104.5 491.5t290.5 411.5l84 -39q-190 -193 -279 -406.5t-89 -459.5q0 -250 89 -469t279 -426l-86 -41q-188 182 -290.5 432t-102.5 506z" />
<glyph unicode=")" horiz-adv-x="647" d="M31 -223q190 207 279 426t89 469q0 246 -89 460t-279 406l84 39q186 -172 290.5 -411.5t104.5 -491.5q0 -256 -102.5 -506t-290.5 -432z" />
<glyph unicode="*" horiz-adv-x="718" d="M59 1235l31 90l242 -98l-21 252h95l-19 -252l242 98l30 -90l-253 -61l178 -203l-76 -58l-150 230l-147 -230l-76 58l176 203z" />
<glyph unicode="+" horiz-adv-x="1286" d="M123 629v90h467v420h104v-420h469v-90h-469v-443h-104v443h-467z" />
<glyph unicode="," horiz-adv-x="495" d="M154 -195q59 33 78.5 76t19.5 115v4h-76v217h150v-201q0 -106 -32 -166.5t-110 -99.5z" />
<glyph unicode="-" horiz-adv-x="1005" d="M123 522v99h760v-99h-760z" />
<glyph unicode="." horiz-adv-x="489" d="M172 0v211h145v-211h-145z" />
<glyph unicode="/" horiz-adv-x="1040" d="M100 -240l736 1796h104l-735 -1796h-105z" />
<glyph unicode="0" horiz-adv-x="1470" d="M123 713q0 233 73.5 401t212 258t326.5 90q190 0 328.5 -90t211.5 -259t73 -404q0 -231 -73 -400.5t-210 -258.5t-328 -89q-190 0 -328.5 90t-212 259t-73.5 403zM236 713q0 -315 132 -487.5t369 -172.5q238 0 369 172t131 484q0 315 -132 488t-370 173 q-236 0 -367.5 -172t-131.5 -485z" />
<glyph unicode="1" horiz-adv-x="843" d="M70 1053v98h32q133 0 234.5 74.5t132.5 197.5h92v-1423h-108v1212q-43 -72 -134.5 -115.5t-195.5 -43.5h-53z" />
<glyph unicode="2" horiz-adv-x="1316" d="M92 0v100q236 131 417 248t312 234q123 109 176.5 213t53.5 229q0 154 -102.5 249t-301.5 95q-186 0 -301 -91t-115 -255q0 -51 13 -107l-115 11q-10 51 -10 106q0 129 66.5 226.5t187.5 150.5t278 53q248 0 382 -119.5t134 -316.5q0 -145 -71.5 -266t-208.5 -242 q-117 -102 -290 -218t-335 -200h944v-100h-1114z" />
<glyph unicode="3" horiz-adv-x="1370" d="M109 406l110 12q16 -170 135 -267.5t330 -97.5q213 0 331 86t118 248q0 150 -107.5 227.5t-308.5 77.5h-139v92h124q174 0 278.5 73t104.5 214q0 143 -107.5 221t-305.5 78q-207 0 -319.5 -100.5t-116.5 -274.5l-107 19q6 207 148.5 327.5t400.5 120.5q250 0 384 -102.5 t134 -284.5q0 -139 -90 -224t-229 -103q168 -16 268 -108.5t100 -252.5q0 -199 -145.5 -312.5t-417.5 -113.5q-256 0 -406.5 121t-166.5 324z" />
<glyph unicode="4" horiz-adv-x="1329" d="M35 389v78l827 956h123v-946h291v-88h-291v-389h-104v389h-846zM160 477h721v684q0 111 4 158h-4q-14 -31 -34 -57.5t-63 -73.5l-512 -590q-47 -55 -112 -121z" />
<glyph unicode="5" horiz-adv-x="1329" d="M119 352l112 17q29 -147 145 -230.5t294 -83.5q209 0 325.5 108.5t116.5 305.5q0 193 -109.5 297t-312.5 104q-164 0 -276.5 -74.5t-155.5 -207.5l-111 12l82 823h926v-96h-840l-59 -600q59 115 180 176.5t287 61.5q238 0 370 -129t132 -365q0 -156 -69 -270.5 t-194.5 -177t-293.5 -62.5q-224 0 -369 103.5t-180 287.5z" />
<glyph unicode="6" horiz-adv-x="1378" d="M119 702q0 371 154.5 565.5t445.5 194.5q219 0 355 -98t169 -285l-110 -22q-70 313 -416 313q-242 0 -368 -170t-124 -500v-22q0 -37 2 -53q47 154 183.5 240.5t328.5 86.5q246 0 387.5 -131t141.5 -360q0 -150 -67.5 -262.5t-190.5 -175t-285 -62.5q-299 0 -452.5 184.5 t-153.5 556.5zM246 465q39 -205 160.5 -308.5t320.5 -103.5q197 0 313.5 109.5t116.5 298.5q0 190 -113.5 293.5t-318.5 103.5q-195 0 -322 -104.5t-157 -288.5z" />
<glyph unicode="7" horiz-adv-x="1196" d="M61 1325v98h1088v-90q-295 -264 -460 -590.5t-165 -703.5v-39h-125v27q0 362 161 688.5t456 609.5h-955z" />
<glyph unicode="8" horiz-adv-x="1378" d="M111 360q0 154 98 250.5t287 132.5q-176 43 -259 127t-83 228q0 170 144 267t390 97t389.5 -97t143.5 -267q0 -141 -88.5 -225.5t-266.5 -114.5q209 -47 305.5 -138.5t96.5 -252.5q0 -193 -151.5 -299.5t-424.5 -106.5q-276 0 -428.5 104.5t-152.5 294.5zM223 369 q0 -150 124 -233t345 -83t343 81t122 233q0 133 -87 207.5t-279 109.5l-158 31q-213 -45 -311.5 -128t-98.5 -218zM264 1098q0 -117 79 -183.5t251 -103.5l141 -27q143 35 224 75t116 96.5t35 140.5q0 135 -112.5 208.5t-311.5 73.5q-197 0 -309.5 -73.5t-112.5 -206.5z" />
<glyph unicode="9" horiz-adv-x="1378" d="M111 989q0 141 67.5 249t191.5 166t292 58q290 0 444 -178t154 -543q0 -375 -148.5 -577.5t-443.5 -202.5q-221 0 -359.5 101.5t-171.5 291.5l111 23q66 -324 422 -324q244 0 363.5 175t119.5 511v29v47q-53 -133 -189.5 -212t-324.5 -79q-242 0 -385 121t-143 344z M221 989q0 -180 117 -275.5t317 -95.5q187 0 318 94.5t164 252.5q-72 406 -473 405q-205 0 -324 -101.5t-119 -279.5z" />
<glyph unicode=":" horiz-adv-x="489" d="M172 0v211h145v-211h-145zM172 813v211h145v-211h-145z" />
<glyph unicode=";" horiz-adv-x="540" d="M177 -195q59 33 78.5 76t19.5 115v4h-76v217h150v-201q0 -106 -32 -166.5t-110 -99.5zM223 813v211h145v-211h-145z" />
<glyph unicode="&#x3c;" horiz-adv-x="1427" d="M145 625v86l1031 450v-100l-912 -391l912 -394v-102z" />
<glyph unicode="=" horiz-adv-x="1286" d="M123 442v99h1040v-99h-1040zM123 807v98h1040v-98h-1040z" />
<glyph unicode="&#x3e;" horiz-adv-x="1427" d="M252 174v102l911 394l-911 391v100l1030 -450v-86z" />
<glyph unicode="?" horiz-adv-x="1167" d="M57 1075q0 197 142.5 314.5t394.5 117.5q236 0 371 -107.5t135 -287.5q0 -127 -60.5 -217t-167.5 -162l-133 -86q-72 -49 -100.5 -101t-28.5 -130v-58h-112v72q0 88 40 154.5t130 128.5l133 86q88 59 135 133t47 176q0 137 -107.5 220t-283.5 83q-193 0 -306.5 -90 t-113.5 -254q0 -47 10 -94l-116 12q-8 43 -9 90zM485 0v209h142v-209h-142z" />
<glyph unicode="@" horiz-adv-x="1892" d="M96 567q0 236 107.5 415t303 277.5t454.5 98.5q256 0 444 -93.5t289.5 -263.5t101.5 -395q0 -211 -83 -333.5t-226 -122.5q-96 0 -155.5 52t-76.5 148q-47 -102 -156.5 -160.5t-252.5 -58.5t-234.5 67.5t-91.5 174.5q0 117 77 174t259 80l387 37v22q0 141 -69.5 203.5 t-225.5 62.5q-129 0 -205.5 -54t-85.5 -157h-104q8 133 117.5 213t281.5 80q197 0 292 -87t95 -267v-240q0 -109 38 -160t120 -51q96 0 151.5 99.5t55.5 273.5q0 207 -87 358.5t-255 233.5t-401 82t-407.5 -87t-269 -247t-94.5 -375q0 -217 92.5 -373.5t264.5 -240.5 t407 -84q113 0 235 23.5t218 64.5l29 -74q-203 -96 -498 -96q-258 0 -448.5 94t-292 269.5t-101.5 416.5zM625 381q0 -78 65.5 -123t177.5 -45q105 0 192 39t136 107.5t49 152.5v78l-383 -37q-129 -14 -183 -53t-54 -119z" />
<glyph unicode="A" horiz-adv-x="1548" d="M55 0l662 1454h114l664 -1454h-123l-180 410h-834l-180 -410h-123zM403 510h744l-275 620q-72 154 -96 222h-4q-33 -90 -96 -222z" />
<glyph unicode="B" horiz-adv-x="1570" d="M236 0v1454h698q244 0 351.5 -106.5t107.5 -264.5q0 -125 -69 -217t-206 -114q154 -19 231.5 -113t77.5 -242q0 -176 -112.5 -286.5t-364.5 -110.5h-714zM354 100h588q369 0 369 301q0 297 -357 297h-600v-598zM354 797h586q336 0 336 280q0 119 -78 198t-270 79h-574 v-557z" />
<glyph unicode="C" horiz-adv-x="1626" d="M96 729q0 231 90 405.5t259 268.5t399 94q283 0 457 -140t215 -388l-123 -11q-35 209 -179.5 324t-375.5 115q-190 0 -330.5 -81t-215.5 -230.5t-75 -354.5q0 -201 75 -353.5t215 -236.5t335 -84q221 0 364.5 108.5t192.5 311.5l117 -16q-59 -240 -231.5 -372 t-448.5 -132q-234 0 -401 97.5t-253 271.5t-86 403z" />
<glyph unicode="D" horiz-adv-x="1675" d="M236 0v1454h598q225 0 394 -85t261 -245.5t92 -386.5q0 -223 -96 -390t-266 -257t-390 -90h-593zM354 100h480q188 0 329.5 78t218 222.5t76.5 336.5q0 197 -77.5 335t-220 210t-333.5 72h-473v-1254z" />
<glyph unicode="E" horiz-adv-x="1484" d="M242 0v1454h1075v-98h-959v-561h924v-99h-924v-598h973v-98h-1089z" />
<glyph unicode="F" horiz-adv-x="1419" d="M242 0v1454h1075v-98h-959v-561h924v-101h-924v-694h-116z" />
<glyph unicode="G" horiz-adv-x="1681" d="M96 729q0 231 89 405.5t257 268.5t400 94q199 0 338 -67.5t216 -171t101 -222.5l-117 -16q-35 158 -170 267.5t-376 109.5q-190 0 -329.5 -82t-214.5 -233.5t-75 -356.5q0 -197 71.5 -347.5t211 -235.5t333.5 -85q201 0 330 82t187.5 200t58.5 230v76h-582v100h691v-745 h-93l-12 305q-70 -164 -224.5 -256t-373.5 -92t-382 96.5t-249 271.5t-86 404z" />
<glyph unicode="H" horiz-adv-x="1746" d="M242 0v1454h116v-659h1033v659h114v-1454h-114v694h-1033v-694h-116z" />
<glyph unicode="I" horiz-adv-x="598" d="M242 0v1454h116v-1454h-116z" />
<glyph unicode="J" horiz-adv-x="872" d="M45 -12v108q106 -20 199 -20q147 0 231 74.5t84 261.5v1042h115v-1053q0 -231 -117 -332.5t-313 -101.5q-125 0 -199 21z" />
<glyph unicode="K" horiz-adv-x="1556" d="M242 0v1454h116v-883l930 883h156l-594 -563l637 -891h-141l-580 811l-408 -377v-434h-116z" />
<glyph unicode="L" horiz-adv-x="1325" d="M242 0v1454h116v-1354h906v-100h-1022z" />
<glyph unicode="M" horiz-adv-x="2041" d="M242 0v1454h168l573 -1237q29 -72 35 -94h4q6 23 35 94l575 1237h168v-1454h-106v1225q0 86 4 121h-4q-4 -12 -18.5 -52.5t-28.5 -68.5l-572 -1225h-110l-572 1227q-25 53 -43 119h-6q6 -51 6 -121v-1225h-108z" />
<glyph unicode="N" horiz-adv-x="1736" d="M242 0v1454h141l913 -1182q61 -84 93 -141h2q-2 49 -2 158v1165h106v-1454h-133l-922 1192q-59 82 -92 139h-2q2 -47 2 -155v-1176h-106z" />
<glyph unicode="O" d="M96 727q0 238 95.5 412t266.5 266t392 92t392 -92t266.5 -266t95.5 -412q0 -236 -95.5 -410t-266.5 -267t-392 -93t-392 93t-266.5 267.5t-95.5 409.5zM217 727q0 -203 80 -354.5t223.5 -233.5t329.5 -82t329.5 81t223.5 232.5t80 356.5t-80 356.5t-223.5 232.5 t-329.5 81t-329.5 -81t-223.5 -232.5t-80 -356.5z" />
<glyph unicode="P" horiz-adv-x="1447" d="M236 0v1454h686q219 0 345 -109.5t126 -300.5q0 -199 -130 -314.5t-352 -115.5h-557v-614h-118zM354 715h564q161 0 256.5 89t95.5 240q0 145 -94.5 227.5t-264.5 82.5h-557v-639z" />
<glyph unicode="Q" d="M96 727q0 238 95.5 412t266.5 266t392 92t392 -92t266.5 -266t95.5 -412q0 -279 -130.5 -469t-357.5 -262q68 -86 143.5 -122t176.5 -36q49 0 84.5 5t44.5 7v-104q-90 -12 -138 -12q-139 0 -245.5 63.5t-169.5 173.5q-72 -14 -162 -14q-221 0 -392 93t-266.5 267.5 t-95.5 409.5zM217 727q0 -203 80 -354.5t223.5 -233.5t329.5 -82t329.5 81t223.5 232.5t80 356.5t-80 356.5t-223.5 232.5t-329.5 81t-329.5 -81t-223.5 -232.5t-80 -356.5z" />
<glyph unicode="R" horiz-adv-x="1552" d="M236 0v1454h694q244 0 352.5 -112.5t108.5 -292.5q0 -152 -89.5 -260.5t-275.5 -135.5l412 -653h-140l-399 637h-545v-637h-118zM354 737h568q176 0 262 85t86 227q0 143 -84 224t-266 81h-566v-617z" />
<glyph unicode="S" horiz-adv-x="1484" d="M96 453l121 14q25 -195 165 -303.5t396 -108.5q225 0 347 78t122 232q0 145 -84 212.5t-276 98.5l-330 47q-397 59 -397 375q0 188 149.5 293.5t415.5 105.5q567 0 623 -450l-121 -21q-25 193 -149 283t-355 90q-211 0 -326.5 -77t-115.5 -218q0 -121 77.5 -188.5 t251.5 -94.5l322 -47q223 -33 329.5 -125t106.5 -274q0 -203 -154.5 -310.5t-439.5 -107.5q-307 0 -478 128t-200 368z" />
<glyph unicode="T" horiz-adv-x="1302" d="M20 1356v98h1262v-98h-573v-1356h-115v1356h-574z" />
<glyph unicode="U" horiz-adv-x="1648" d="M199 551v903h116v-899q0 -225 133.5 -360.5t374.5 -135.5q242 0 376 135.5t134 360.5v899h117v-903q0 -178 -72.5 -311.5t-214 -207t-340.5 -73.5t-339 73.5t-212.5 207t-72.5 311.5z" />
<glyph unicode="V" horiz-adv-x="1421" d="M12 1454h125l508 -1165q49 -129 62 -174h6q14 53 63 174l508 1165h125l-635 -1454h-127z" />
<glyph unicode="W" horiz-adv-x="2174" d="M53 1454h121l377 -1261q18 -61 20 -76h2q4 16 10.5 35.5t12.5 40.5l432 1261h119l432 -1261l12 -40t11 -36h4q0 12 18 76l377 1261h121l-447 -1454h-141l-422 1241q-14 39 -22 78h-5q-4 -35 -22 -78l-422 -1241h-139z" />
<glyph unicode="X" horiz-adv-x="1458" d="M35 0l622 758l-579 696h145l445 -539q51 -68 63 -86h2q14 23 64 84l442 541h141l-575 -700l620 -754h-147l-469 575q-59 76 -80 109h-4q-31 -49 -80 -109l-471 -575h-139z" />
<glyph unicode="Y" horiz-adv-x="1374" d="M8 1454h137l463 -663q61 -84 76 -117h4q20 45 76 117l465 663h137l-623 -883v-571h-116v571z" />
<glyph unicode="Z" horiz-adv-x="1384" d="M92 0v102l1051 1254h-1012v98h1153v-100l-1053 -1256h1088v-98h-1227z" />
<glyph unicode="[" horiz-adv-x="739" d="M242 -240v1796h430v-88h-332v-1620h332v-88h-430z" />
<glyph unicode="\" horiz-adv-x="1040" d="M100 1556h105l735 -1796h-104z" />
<glyph unicode="]" horiz-adv-x="739" d="M68 -152h331v1620h-331v88h430v-1796h-430v88z" />
<glyph unicode="^" horiz-adv-x="913" d="M41 899l375 553h82l374 -553h-104l-311 461l-310 -461h-106z" />
<glyph unicode="_" horiz-adv-x="1038" d="M0 -207h1038v-78h-1038v78z" />
<glyph unicode="`" horiz-adv-x="1228" d="M61 1487h137l269 -299h-111z" />
<glyph unicode="a" horiz-adv-x="1327" d="M125 262q0 133 94 209q51 41 136 67.5t227 39.5l452 36v31q0 166 -89 244t-279 78q-174 0 -275.5 -66.5t-118.5 -200.5h-112q14 166 150 261.5t356 95.5q242 0 358.5 -100.5t116.5 -311.5v-276q0 -236 22 -369h-110q-14 111 -15 240q-59 -131 -188 -202t-318 -71 q-184 0 -295.5 80t-111.5 215zM236 264q0 -100 86 -154.5t237 -54.5q137 0 245.5 49.5t169 136.5t60.5 197v97l-452 -41q-190 -18 -268 -71.5t-78 -158.5z" />
<glyph unicode="b" horiz-adv-x="1439" d="M225 0v1485h107v-717q53 133 180 211t297 78q160 0 278.5 -65.5t182 -188.5t63.5 -289q0 -164 -66.5 -288t-187.5 -191.5t-280 -67.5q-172 0 -294 75t-175 202l-17 -244h-88zM330 483q0 -121 55 -217t156.5 -150.5t232.5 -54.5q209 0 329 120t120 333t-115 331t-324 118 q-133 0 -236.5 -55.5t-160.5 -152t-57 -216.5v-56z" />
<glyph unicode="c" horiz-adv-x="1277" d="M98 512q0 256 149.5 400.5t409.5 144.5q215 0 346.5 -96.5t163.5 -278.5l-112 -12q-27 143 -130.5 218t-273.5 75q-209 0 -324.5 -117t-115.5 -332t117.5 -334t326.5 -119q164 0 267.5 74t136.5 215l106 -14q-35 -176 -169 -272.5t-343 -96.5q-258 0 -406.5 145.5 t-148.5 399.5z" />
<glyph unicode="d" horiz-adv-x="1441" d="M106 512q0 164 66 287t187.5 190.5t287.5 67.5t285 -72t178 -207v707h104v-1485h-102v252q-59 -133 -182 -209t-291 -76q-162 0 -281.5 67.5t-185.5 191.5t-66 286zM219 512q0 -211 118 -331t325 -120q135 0 237 55.5t157.5 152t55.5 214.5v52q0 121 -56.5 218 t-158.5 153.5t-238 56.5q-211 0 -325.5 -119t-114.5 -332z" />
<glyph unicode="e" horiz-adv-x="1296" d="M98 510q0 262 146.5 404.5t396.5 142.5q254 0 395.5 -130t141.5 -374v-59h-971q2 -209 120.5 -321t327.5 -112q162 0 269.5 68t150.5 197l92 -35q-53 -158 -185 -241t-329 -83q-262 0 -408.5 141.5t-146.5 401.5zM207 580h860v6q0 184 -115.5 284.5t-310.5 100.5 t-312.5 -104.5t-121.5 -286.5z" />
<glyph unicode="f" horiz-adv-x="819" d="M59 936v88h248v154q0 158 82 240.5t240 82.5q76 0 145 -16v-92q-76 14 -137 14q-119 0 -172 -56.5t-53 -179.5v-147h362v-88h-362v-936h-105v936h-248z" />
<glyph unicode="g" horiz-adv-x="1294" d="M96 -143q0 80 50.5 138t140.5 85q-68 23 -101.5 66.5t-33.5 103.5q0 70 45 118t127 70q-68 47 -104 115t-36 152q0 162 125 257t334 95q158 0 272 -58q20 84 89 130.5t167 46.5q33 0 54 -5v-94q-33 4 -58 4q-71 0 -124.5 -29.5t-71.5 -86.5q61 -47 95 -114t34 -146 q0 -160 -125 -256.5t-332 -96.5q-154 0 -264 54q-59 -14 -93 -49t-34 -81q0 -57 46 -90.5t136 -33.5l449 -5q168 -2 252 -69.5t84 -192.5q0 -317 -570 -317q-553 0 -553 289zM199 -129q0 -109 112.5 -161t341.5 -52q240 0 349.5 56.5t109.5 166.5q0 86 -60.5 129t-187.5 45 l-432 2q-25 0 -65 4q-80 -23 -124 -71.5t-44 -118.5zM291 705q0 -125 95 -197t257 -72q160 0 255 72t95 197q0 127 -95 197.5t-255 70.5q-162 0 -257 -71t-95 -197z" />
<glyph unicode="h" horiz-adv-x="1431" d="M231 0v1485h105v-731q53 145 173 224t288 79q221 0 336.5 -125t115.5 -367v-565h-104v557q0 201 -95.5 304.5t-279.5 103.5q-129 0 -227.5 -55.5t-152.5 -157t-54 -234.5v-518h-105z" />
<glyph unicode="i" horiz-adv-x="546" d="M215 1200v238h119v-238h-119zM221 0v1024h105v-1024h-105z" />
<glyph unicode="j" horiz-adv-x="550" d="M-74 -311q78 -10 121 -11q86 0 132 50.5t46 165.5v1130h105v-1145q0 -137 -70 -216t-205 -79q-84 1 -129 13v92zM215 1200v238h119v-238h-119z" />
<glyph unicode="k" horiz-adv-x="1286" d="M231 0v1485h105v-1051l688 590h150l-433 -375l467 -649h-131l-415 582l-326 -267v-315h-105z" />
<glyph unicode="l" horiz-adv-x="567" d="M231 0v1485h105v-1485h-105z" />
<glyph unicode="m" horiz-adv-x="2074" d="M221 0v1024h101v-254q41 139 142 213t249 74q150 0 246 -73t128 -208q49 135 154 208t248 73q199 0 301 -117t102 -338v-602h-106v596q0 180 -81 273.5t-239 93.5q-162 0 -260 -101.5t-98 -267.5v-594h-104v608q0 172 -81 263.5t-235 91.5q-164 0 -263 -113t-99 -297 v-553h-105z" />
<glyph unicode="n" horiz-adv-x="1421" d="M221 0v1024h103v-272q53 150 170.5 227.5t291.5 77.5q221 0 337 -122t116 -357v-578h-104v563q0 197 -95.5 298.5t-279.5 101.5q-199 0 -316.5 -121t-117.5 -324v-518h-105z" />
<glyph unicode="o" horiz-adv-x="1318" d="M98 512q0 168 70 291t197 188.5t294 65.5q168 0 295 -65.5t197 -188.5t70 -291t-70 -291t-197 -188.5t-295 -65.5q-167 0 -294 65.5t-197 188.5t-70 291zM211 512q0 -215 121 -333t327 -118q207 0 329 118t122 333t-122 333t-329 118t-327.5 -118t-120.5 -333z" />
<glyph unicode="p" horiz-adv-x="1431" d="M215 -399v1423h104v-260q55 137 181.5 215t300.5 78q160 0 277.5 -65.5t182 -188.5t64.5 -291q0 -164 -66.5 -288t-187.5 -190.5t-278 -66.5q-166 0 -293 75t-178 198v-639h-107zM319 483q0 -121 56.5 -217t158 -150.5t234.5 -54.5q207 0 325.5 120t118.5 331 q0 215 -114.5 333t-317.5 118q-135 0 -240.5 -55.5t-163 -153t-57.5 -217.5v-54z" />
<glyph unicode="q" horiz-adv-x="1431" d="M106 512q0 168 66 292t186.5 189.5t280.5 65.5q172 0 296 -75t177 -210l18 250h84v-1423h-104v645q-51 -127 -177 -204t-296 -77q-160 0 -279.5 67.5t-185.5 191.5t-66 288zM219 512q0 -213 119 -333t324 -120q139 0 240.5 56.5t155.5 154t54 215.5v54q0 121 -54 217 t-157.5 152.5t-245.5 56.5q-199 0 -317.5 -118t-118.5 -335z" />
<glyph unicode="r" horiz-adv-x="837" d="M221 0v1024h98v-313q39 157 141.5 248.5t248.5 91.5q35 0 82 -9v-100q-29 6 -76 6q-156 0 -252 -96q-137 -135 -137 -401v-451h-105z" />
<glyph unicode="s" horiz-adv-x="1212" d="M102 315l103 29q66 -287 446 -287q164 0 251 55.5t87 159.5q0 84 -50 132.5t-171 62.5l-322 29q-301 35 -301 270q0 137 119 214t326 77q215 0 339 -81t154 -239l-102 -26q-35 135 -128 196.5t-269 61.5q-160 0 -247 -52.5t-87 -146.5q0 -158 219 -184l326 -29 q160 -18 230.5 -89t70.5 -187q0 -147 -116 -230.5t-339 -83.5q-457 0 -539 348z" />
<glyph unicode="t" horiz-adv-x="860" d="M51 936v88h246v274l106 48v-322h371v-88h-371v-639q0 -115 57.5 -166t164.5 -51q76 0 149 18v-94q-71 -22 -162 -22h-8q-307 0 -307 309v645h-246z" />
<glyph unicode="u" horiz-adv-x="1406" d="M182 434v590h105v-584q0 -199 98 -290t258 -91q139 0 237.5 60.5t148.5 159t50 215.5v530h107v-1024h-103v266q-49 -139 -168.5 -218t-285.5 -79q-226 0 -336.5 119t-110.5 346z" />
<glyph unicode="v" horiz-adv-x="1155" d="M23 1024h116l385 -799q8 -18 24.5 -56t26.5 -67h5q14 41 51 123l385 799h117l-498 -1024h-115z" />
<glyph unicode="w" horiz-adv-x="1806" d="M53 1024h109l295 -801q6 -16 17 -53t18 -66h4q6 27 13 46.5t11 33.5l15 39l313 801h110l312 -801q29 -74 39 -119h4q12 49 37 119l292 801h111l-381 -1024h-117l-317 815q-20 55 -33 107h-4q-12 -51 -33 -107l-317 -815h-117z" />
<glyph unicode="x" horiz-adv-x="1165" d="M47 0l467 530l-440 494h131l291 -322l28 -36l58 -76h4q31 43 86 112l284 322h136l-441 -498l467 -526h-133l-317 358q-49 55 -84 109h-4q-20 -33 -86 -113l-316 -354h-131z" />
<glyph unicode="y" horiz-adv-x="1142" d="M23 1024h118l377 -772q43 -92 68 -160h4q12 37 63 158l355 774h112l-504 -1090q-86 -188 -186 -269t-258 -81q-45 0 -92 8v93q43 -6 80 -7q135 0 214 66t132 188l29 64z" />
<glyph unicode="z" horiz-adv-x="1171" d="M109 0v86l802 848h-772v90h912v-82l-805 -852h831v-90h-968z" />
<glyph unicode="{" horiz-adv-x="731" d="M76 631v86q82 0 119.5 19.5t48 54t10.5 100.5v379q0 303 348 303h57v-82h-47q-121 0 -189.5 -49t-68.5 -180v-373q0 -86 -29.5 -139.5t-111.5 -73.5q80 -25 110.5 -83t30.5 -144v-398q0 -125 70 -168t188 -43h54v-82h-70q-340 1 -340 269v422q0 63 -11.5 100t-50 59.5 t-118.5 22.5z" />
<glyph unicode="|" horiz-adv-x="555" d="M231 -240v1796h93v-1796h-93z" />
<glyph unicode="}" horiz-adv-x="731" d="M66 -160h53q119 0 188.5 43t69.5 168v398q0 86 30.5 144t110.5 83q-82 20 -111.5 73.5t-29.5 139.5v373q0 131 -68.5 180t-189.5 49h-47v82h57q348 0 348 -303v-379q0 -66 10.5 -100.5t48 -54t119.5 -19.5v-86q-80 0 -118.5 -22.5t-50 -59.5t-11.5 -100v-422 q0 -268 -340 -269h-69v82z" />
<glyph unicode="~" horiz-adv-x="1427" d="M227 496q16 123 88 188.5t183 65.5q72 0 125 -27t120 -78q57 -43 98.5 -64.5t90.5 -21.5q78 0 123 44t59 136l86 -12q-20 -125 -91 -189.5t-179 -64.5q-70 0 -123 26.5t-121 78.5q-61 45 -100 65.5t-88 20.5q-156 0 -183 -177z" />
<glyph unicode="&#xa1;" horiz-adv-x="626" d="M242 983v205h141v-205h-141zM246 -297l26 1098h80l29 -1098h-135z" />
<glyph unicode="&#xa2;" horiz-adv-x="1300" d="M98 516q0 244 140.5 386t388.5 155v157h78v-157q205 -8 330.5 -103.5t154.5 -267.5l-109 -12q-25 135 -121 208.5t-255 82.5v-910q157 11 255.5 84.5t124.5 206.5l105 -14q-33 -166 -160 -260.5t-325 -104.5v-155h-78v155q-248 12 -388.5 156.5t-140.5 392.5zM209 516 q0 -209 109.5 -328.5t308.5 -130.5v910q-199 -10 -308.5 -127t-109.5 -324z" />
<glyph unicode="&#xa3;" horiz-adv-x="1415" d="M55 68q152 43 235 148.5t83 254.5q0 117 -29 231h-248v82h226q-18 72 -27.5 129.5t-9.5 126.5q0 201 128 312.5t359 111.5q205 0 329 -92t150 -268l-108 -25q-20 143 -116.5 218t-256.5 75q-182 0 -275.5 -83t-93.5 -245q0 -72 10.5 -131t28.5 -129h492v-82h-473 q25 -104 24 -213q0 -287 -237 -391q111 25 227 25q119 0 272 -31q14 -2 90 -14t156 -12q115 0 182.5 65.5t75.5 183.5l101 -16q-14 -162 -107.5 -249t-253.5 -87q-92 0 -241 31q-86 18 -158 27.5t-158 9.5q-80 0 -161 -10.5t-189 -32.5z" />
<glyph unicode="&#xa4;" horiz-adv-x="1265" d="M102 1044l56 52l127 -117q143 109 354 108q205 0 344 -106l125 117l57 -51l-125 -117q117 -127 117 -309q0 -183 -117 -310l123 -114l-57 -52l-123 115q-139 -106 -344 -106q-104 0 -194.5 27.5t-157.5 80.5l-127 -119l-56 52l125 118q-115 127 -114 308q0 184 114 305z M213 621q0 -113 54.5 -198t151.5 -132t220 -47t218 47t148.5 132t53.5 198t-53.5 197.5t-148.5 131.5t-218 47t-220 -47t-151.5 -132t-54.5 -197z" />
<glyph unicode="&#xa5;" horiz-adv-x="1372" d="M8 1423h131l408 -530q86 -113 137 -195h4q51 82 137 195l408 530h129l-608 -790h491v-80h-504v-150h504v-77h-504v-326h-110v326h-504v77h504v150h-504v80h491z" />
<glyph unicode="&#xa6;" horiz-adv-x="552" d="M231 -240v775h91v-775h-91zM231 782v774h91v-774h-91z" />
<glyph unicode="&#xa7;" horiz-adv-x="1218" d="M96 102l101 15q53 -250 395 -250q180 0 271 57.5t91 167.5q0 88 -49 137.5t-176 94.5l-323 82q-160 47 -227.5 112.5t-67.5 179.5q0 162 168 234q-68 39 -98.5 95t-30.5 136q0 141 117.5 221t328.5 80q199 0 317.5 -75.5t145.5 -221.5l-105 -20q-27 119 -114.5 174 t-249.5 55q-164 0 -250 -53t-86 -154q0 -82 50 -129t175 -86l320 -80q160 -49 230.5 -121.5t70.5 -185.5q0 -80 -37 -142.5t-109 -102.5q56 -41 81.5 -94.5t25.5 -125.5q0 -156 -124 -239.5t-353 -83.5q-211 0 -335 82t-153 241zM215 709q0 -84 53.5 -132.5t194.5 -91.5 l297 -73q63 -20 121 -47q115 66 114 188q0 88 -54 142.5t-196 99.5l-317 79l-59 19q-76 -25 -115 -72t-39 -112z" />
<glyph unicode="&#xa8;" horiz-adv-x="1228" d="M105 1208v226h125v-226h-125zM613 1208v226h125v-226h-125z" />
<glyph unicode="&#xa9;" horiz-adv-x="1839" d="M96 727q0 238 105.5 412t290 266t419.5 92q236 0 421.5 -92t291 -266t105.5 -412q0 -236 -105.5 -411t-291 -267t-421.5 -92q-233 0 -418.5 92t-291 267.5t-105.5 410.5zM170 727q0 -215 96 -374.5t265 -244.5t380 -85q213 0 382 85t265.5 243.5t96.5 375.5t-96.5 376 t-265.5 244t-382 85q-211 0 -380 -85t-265 -245t-96 -375zM489 725q0 199 119 318.5t318 119.5q166 0 272.5 -77.5t116.5 -200.5l-92 -11q-12 94 -92 152.5t-207 58.5q-156 0 -249 -99t-93 -263q0 -160 94 -257t250 -97q117 0 199.5 56t99.5 144l92 -8 q-23 -119 -130.5 -194.5t-260.5 -75.5q-199 0 -318 117.5t-119 316.5z" />
<glyph unicode="&#xaa;" horiz-adv-x="1040" d="M117 827q0 113 86 162t248 66l327 28v15q0 125 -61.5 182t-198.5 57q-121 0 -193.5 -48t-82.5 -142h-101q12 121 113.5 189.5t263.5 68.5q184 0 270 -76t86 -235v-193q0 -168 19 -266h-98q-10 113 -11 178q-39 -96 -134 -148.5t-230 -52.5q-137 0 -220 58.5t-83 156.5z M215 834q0 -74 63.5 -114t170.5 -40q96 0 171.5 36t117.5 97t42 137v78l-309 -31q-139 -12 -197.5 -51t-58.5 -112z" />
<glyph unicode="&#xab;" horiz-adv-x="1099" d="M86 563l416 424h119l-406 -422l401 -428h-122zM487 563l416 424h119l-406 -422l401 -428h-122z" />
<glyph unicode="&#xac;" horiz-adv-x="1427" d="M199 635v98h1009v-465h-98v367h-911z" />
<glyph unicode="&#xad;" horiz-adv-x="1005" d="M123 522v99h760v-99h-760z" />
<glyph unicode="&#xae;" horiz-adv-x="1839" d="M96 727q0 238 105.5 412t290 266t419.5 92q236 0 421.5 -92t291 -266t105.5 -412q0 -236 -105.5 -411t-291 -267t-421.5 -92q-233 0 -418.5 92t-291 267.5t-105.5 410.5zM170 727q0 -215 96 -374.5t265 -244.5t380 -85q213 0 382 85t265.5 243.5t96.5 375.5t-96.5 376 t-265.5 244t-382 85q-211 0 -380 -85t-265 -245t-96 -375zM612 319v832h398q141 0 213.5 -62.5t72.5 -173.5q0 -84 -50 -144t-150 -85l227 -367h-102l-217 361h-304v-361h-88zM700 754h295q211 0 211 161q0 78 -48 120t-146 42h-312v-323z" />
<glyph unicode="&#xaf;" horiz-adv-x="1228" d="M102 1278v84h713v-84h-713z" />
<glyph unicode="&#xb0;" horiz-adv-x="903" d="M80 1098q0 109 48 192.5t133 130.5t190 47q104 0 189 -47t134 -132t49 -191t-49 -190.5t-134 -131.5t-189 -47q-105 0 -190 47t-133 130t-48 192zM178 1098q0 -121 77 -200t196 -79q118 0 196 79t78 200q0 125 -77 202.5t-197 77.5q-119 0 -196 -78.5t-77 -201.5z" />
<glyph unicode="&#xb1;" horiz-adv-x="1427" d="M193 0v98h1042v-98h-1042zM193 635v90h466v373h105v-373h471v-90h-471v-367h-105v367h-466z" />
<glyph unicode="&#xb4;" horiz-adv-x="1228" d="M100 1188l269 299h137l-295 -299h-111z" />
<glyph unicode="&#xb5;" horiz-adv-x="1445" d="M221 -399v1423h105v-584q0 -199 98 -290t258 -91q139 0 237.5 60.5t148.5 159t50 215.5v530h107v-1024h-103v266q-49 -139 -168.5 -218t-285.5 -79q-240 0 -353 137v-505h-94z" />
<glyph unicode="&#xb6;" horiz-adv-x="1576" d="M115 1104q0 193 152.5 282t402.5 89h733v-76h-248v-1604h-90v1604h-317v-1604h-89v944q-544 0 -544 365z" />
<glyph unicode="&#xb7;" horiz-adv-x="489" d="M172 598v211h145v-211h-145z" />
<glyph unicode="&#xb8;" horiz-adv-x="1228" d="M96 -281l82 13q10 -35 42 -54.5t79 -19.5q57 0 88 25.5t31 70.5q0 43 -31 67.5t-84 24.5q-61 0 -105 -34l-57 18l107 176h77l-92 -135q37 31 105 31q76 0 122 -40t46 -108q0 -72 -56.5 -116t-150.5 -44q-80 0 -133.5 33t-69.5 92z" />
<glyph unicode="&#xba;" horiz-adv-x="1036" d="M96 1010q0 182 115 288.5t307 106.5q193 0 307.5 -106.5t114.5 -288.5t-114.5 -290t-307.5 -108q-192 0 -307 107.5t-115 290.5zM195 1010q0 -152 87 -239t236 -87q150 0 238 87t88 239t-88 237.5t-238 85.5t-236.5 -86t-86.5 -237z" />
<glyph unicode="&#xbb;" horiz-adv-x="1099" d="M78 987h119l415 -424l-407 -426h-123l401 428zM479 987h119l416 -424l-408 -426h-123l402 428z" />
<glyph unicode="&#xbc;" horiz-adv-x="1722" d="M59 1225v82h19q82 0 144.5 39.5t82.5 109.5h76v-776h-92v639q-31 -43 -85 -68.5t-116 -25.5h-29zM211 -35l1018 1524h104l-1018 -1524h-104zM891 201v63l498 512h98v-508h178v-67h-178v-201h-90v201h-506zM975 268h422v426z" />
<glyph unicode="&#xbd;" horiz-adv-x="1820" d="M59 1225v82h19q82 0 144.5 39.5t82.5 109.5h76v-776h-92v639q-31 -43 -85 -68.5t-116 -25.5h-29zM211 -35l1018 1524h104l-1018 -1524h-104zM1057 0v68q184 96 299 167.5t187.5 151.5t72.5 168q0 78 -58.5 125t-164.5 47q-102 0 -168 -44t-66 -128q0 -12 8 -53l-96 6 q-4 16 -4 55q0 113 91 173.5t237 60.5q147 0 232 -60.5t85 -173.5q0 -139 -146.5 -260t-375.5 -233h547v-70h-680z" />
<glyph unicode="&#xbe;" horiz-adv-x="2027" d="M82 909l94 6q4 -86 71.5 -137t182.5 -51q117 0 185.5 43t68.5 127q0 70 -59.5 108.5t-180.5 38.5h-86v68h78q100 0 161.5 37t61.5 104q0 74 -62 115t-169 41q-115 0 -179.5 -49t-66.5 -139l-92 6q2 117 92 183.5t250 66.5q147 0 234.5 -56.5t87.5 -158.5 q0 -76 -57.5 -122t-145.5 -57q106 -8 167.5 -58t61.5 -132q0 -111 -95 -172.5t-255 -61.5q-158 0 -251 68t-97 182zM516 -35l1018 1524h104l-1018 -1524h-104zM1196 201v63l498 512h98v-508h178v-67h-178v-201h-90v201h-506zM1280 268h422v426z" />
<glyph unicode="&#xbf;" horiz-adv-x="1155" d="M55 76q0 127 60.5 217t167.5 162l133 86q72 49 100.5 101t28.5 130v57h112v-71q0 -88 -39.5 -154.5t-130.5 -128.5l-133 -86q-88 -59 -135 -133t-47 -176q0 -137 107.5 -220t283.5 -83q193 0 306.5 90t113.5 254q0 49 -10 94l117 -12q8 -43 8 -90q0 -197 -142.5 -314.5 t-394.5 -117.5q-236 0 -371 107.5t-135 287.5zM528 979v209h142v-209h-142z" />
<glyph unicode="&#xc0;" horiz-adv-x="1548" d="M55 0l662 1454h114l664 -1454h-123l-180 410h-834l-180 -410h-123zM403 510h744l-275 620q-72 154 -96 222h-4q-33 -90 -96 -222zM444 1749h136l245 -201h-118z" />
<glyph unicode="&#xc1;" horiz-adv-x="1548" d="M55 0l662 1454h114l664 -1454h-123l-180 410h-834l-180 -410h-123zM403 510h744l-275 620q-72 154 -96 222h-4q-33 -90 -96 -222zM715 1548l246 201h135l-262 -201h-119z" />
<glyph unicode="&#xc2;" horiz-adv-x="1548" d="M55 0l662 1454h114l664 -1454h-123l-180 410h-834l-180 -410h-123zM403 510h744l-275 620q-72 154 -96 222h-4q-33 -90 -96 -222zM457 1548l254 201h127l252 -201h-123l-193 152l-194 -152h-123z" />
<glyph unicode="&#xc3;" horiz-adv-x="1548" d="M55 0l662 1454h114l664 -1454h-123l-180 410h-834l-180 -410h-123zM403 510h744l-275 620q-72 154 -96 222h-4q-33 -90 -96 -222zM403 1563q10 94 64.5 145t142.5 51q55 0 95 -19.5t90 -56.5q45 -33 74.5 -48t68.5 -15q109 0 125 127l80 -12q-10 -94 -64.5 -145.5 t-142.5 -51.5q-55 0 -96 19.5t-90 56.5q-45 33 -75 48t-67 15q-109 0 -125 -127z" />
<glyph unicode="&#xc4;" horiz-adv-x="1548" d="M55 0l662 1454h114l664 -1454h-123l-180 410h-834l-180 -410h-123zM403 510h744l-275 620q-72 154 -96 222h-4q-33 -90 -96 -222zM451 1548v195h124v-195h-124zM973 1548v195h127v-195h-127z" />
<glyph unicode="&#xc5;" horiz-adv-x="1548" d="M55 0l662 1454h114l664 -1454h-123l-180 410h-834l-180 -410h-123zM403 510h744l-275 620q-72 154 -96 222h-4q-33 -90 -96 -222zM563 1708q0 88 58.5 143.5t150.5 55.5t150.5 -55.5t58.5 -143.5t-58.5 -142.5t-150.5 -54.5t-150.5 54.5t-58.5 142.5zM641 1708 q0 -57 36 -94t95 -37t95 37t36 94t-36 95t-95 38t-95 -38t-36 -95z" />
<glyph unicode="&#xc6;" horiz-adv-x="2410" d="M16 0l1112 1454h1115v-98h-971v-561h936v-99h-936v-598h985v-98h-1100v360h-737l-270 -360h-134zM494 459h663v882z" />
<glyph unicode="&#xc7;" horiz-adv-x="1626" d="M96 729q0 231 90 405.5t259 268.5t399 94q283 0 457 -140t215 -388l-123 -11q-35 209 -179.5 324t-375.5 115q-190 0 -330.5 -81t-215.5 -230.5t-75 -354.5q0 -201 75 -353.5t215 -236.5t335 -84q221 0 364.5 108.5t192.5 311.5l117 -16q-59 -229 -219 -361.5 t-420 -142.5l-66 -94q37 31 104 31q76 0 122 -40t46 -108q0 -72 -56 -116t-150 -44q-80 0 -133.5 33t-69.5 92l82 13q10 -35 41.5 -54.5t79.5 -19.5q57 0 87.5 25.5t30.5 70.5q0 43 -30.5 67.5t-83.5 24.5q-61 0 -105 -35l-57 19l82 135q-223 8 -382 106.5t-241 269.5 t-82 396z" />
<glyph unicode="&#xc8;" horiz-adv-x="1484" d="M242 0v1454h1075v-98h-959v-561h924v-99h-924v-598h973v-98h-1089zM461 1749h135l246 -201h-119z" />
<glyph unicode="&#xc9;" horiz-adv-x="1484" d="M242 0v1454h1075v-98h-959v-561h924v-99h-924v-598h973v-98h-1089zM731 1548l246 201h135l-262 -201h-119z" />
<glyph unicode="&#xca;" horiz-adv-x="1484" d="M242 0v1454h1075v-98h-959v-561h924v-99h-924v-598h973v-98h-1089zM473 1548l254 201h127l252 -201h-123l-192 152l-195 -152h-123z" />
<glyph unicode="&#xcb;" horiz-adv-x="1484" d="M242 0v1454h1075v-98h-959v-561h924v-99h-924v-598h973v-98h-1089zM467 1548v195h125v-195h-125zM989 1548v195h127v-195h-127z" />
<glyph unicode="&#xcc;" horiz-adv-x="598" d="M84 1749h123l145 -201h-108zM242 0v1454h116v-1454h-116z" />
<glyph unicode="&#xcd;" horiz-adv-x="598" d="M242 0v1454h116v-1454h-116zM244 1548l145 201h123l-160 -201h-108z" />
<glyph unicode="&#xce;" horiz-adv-x="598" d="M72 1548l164 201h124l164 -201h-110l-117 152l-115 -152h-110zM242 0v1454h116v-1454h-116z" />
<glyph unicode="&#xcf;" horiz-adv-x="598" d="M88 1548v195h125v-195h-125zM242 0v1454h116v-1454h-116zM385 1548v195h125v-195h-125z" />
<glyph unicode="&#xd0;" horiz-adv-x="1689" d="M45 711v92h191v651h598q225 0 394 -85t261 -245.5t92 -386.5q0 -223 -96 -390t-266 -257t-390 -90h-593v711h-191zM354 100h480q188 0 329.5 78t218 222.5t76.5 336.5q0 197 -77.5 335t-220 210t-333.5 72h-473v-551h516v-92h-516v-611z" />
<glyph unicode="&#xd1;" horiz-adv-x="1736" d="M242 0v1454h141l913 -1182q61 -84 93 -141h2q-2 49 -2 158v1165h106v-1454h-133l-922 1192q-59 82 -92 139h-2q2 -47 2 -155v-1176h-106zM498 1563q10 94 64 145t143 51q55 0 95 -19.5t89 -56.5q45 -33 74.5 -48t68.5 -15q109 0 125 127l80 -12q-10 -94 -64.5 -145.5 t-142.5 -51.5q-55 0 -96 19.5t-90 56.5q-45 33 -75 48t-67 15q-109 0 -124 -127z" />
<glyph unicode="&#xd2;" d="M96 727q0 238 95.5 412t266.5 266t392 92t392 -92t266.5 -266t95.5 -412q0 -236 -95.5 -410t-266.5 -267t-392 -93t-392 93t-266.5 267.5t-95.5 409.5zM217 727q0 -203 80 -354.5t223.5 -233.5t329.5 -82t329.5 81t223.5 232.5t80 356.5t-80 356.5t-223.5 232.5 t-329.5 81t-329.5 -81t-223.5 -232.5t-80 -356.5zM520 1749h135l246 -201h-119z" />
<glyph unicode="&#xd3;" d="M96 727q0 238 95.5 412t266.5 266t392 92t392 -92t266.5 -266t95.5 -412q0 -236 -95.5 -410t-266.5 -267t-392 -93t-392 93t-266.5 267.5t-95.5 409.5zM217 727q0 -203 80 -354.5t223.5 -233.5t329.5 -82t329.5 81t223.5 232.5t80 356.5t-80 356.5t-223.5 232.5 t-329.5 81t-329.5 -81t-223.5 -232.5t-80 -356.5zM791 1548l245 201h135l-262 -201h-118z" />
<glyph unicode="&#xd4;" d="M96 727q0 238 95.5 412t266.5 266t392 92t392 -92t266.5 -266t95.5 -412q0 -236 -95.5 -410t-266.5 -267t-392 -93t-392 93t-266.5 267.5t-95.5 409.5zM217 727q0 -203 80 -354.5t223.5 -233.5t329.5 -82t329.5 81t223.5 232.5t80 356.5t-80 356.5t-223.5 232.5 t-329.5 81t-329.5 -81t-223.5 -232.5t-80 -356.5zM532 1548l254 201h127l252 -201h-123l-192 152l-195 -152h-123z" />
<glyph unicode="&#xd5;" d="M96 727q0 238 95.5 412t266.5 266t392 92t392 -92t266.5 -266t95.5 -412q0 -236 -95.5 -410t-266.5 -267t-392 -93t-392 93t-266.5 267.5t-95.5 409.5zM217 727q0 -203 80 -354.5t223.5 -233.5t329.5 -82t329.5 81t223.5 232.5t80 356.5t-80 356.5t-223.5 232.5 t-329.5 81t-329.5 -81t-223.5 -232.5t-80 -356.5zM479 1563q10 94 64.5 145t142.5 51q55 0 95 -19.5t89 -56.5q45 -33 75 -48t69 -15q109 0 125 127l80 -12q-10 -94 -64.5 -145.5t-142.5 -51.5q-56 0 -97 19.5t-90 56.5q-45 33 -74.5 48t-66.5 15q-109 0 -125 -127z" />
<glyph unicode="&#xd6;" d="M96 727q0 238 95.5 412t266.5 266t392 92t392 -92t266.5 -266t95.5 -412q0 -236 -95.5 -410t-266.5 -267t-392 -93t-392 93t-266.5 267.5t-95.5 409.5zM217 727q0 -203 80 -354.5t223.5 -233.5t329.5 -82t329.5 81t223.5 232.5t80 356.5t-80 356.5t-223.5 232.5 t-329.5 81t-329.5 -81t-223.5 -232.5t-80 -356.5zM526 1548v195h125v-195h-125zM1049 1548v195h127v-195h-127z" />
<glyph unicode="&#xd7;" horiz-adv-x="1427" d="M207 1075l72 68l434 -406l434 406l72 -68l-435 -405l435 -404l-70 -69l-436 405l-434 -405l-70 67l432 406z" />
<glyph unicode="&#xd8;" d="M96 727q0 238 95.5 412t266.5 266t392 92q147 0 273 -42t225 -120l122 135l68 -55l-127 -139q92 -102 142.5 -240.5t50.5 -308.5q0 -236 -95.5 -410t-266.5 -267t-392 -93q-145 0 -270 42t-224 120l-127 -139l-67 57l129 141q-94 102 -144.5 240.5t-50.5 308.5zM217 727 q0 -141 39 -258t113 -205l903 987q-82 72 -189.5 109t-232.5 37q-186 0 -329.5 -81t-223.5 -232.5t-80 -356.5zM432 201q80 -70 187.5 -107t230.5 -37q186 0 329.5 81t223.5 232.5t80 356.5q0 141 -39 259t-111 204z" />
<glyph unicode="&#xd9;" horiz-adv-x="1648" d="M199 551v903h116v-899q0 -225 133.5 -360.5t374.5 -135.5q242 0 376 135.5t134 360.5v899h117v-903q0 -178 -72.5 -311.5t-214 -207t-340.5 -73.5t-339 73.5t-212.5 207t-72.5 311.5zM496 1749h135l246 -201h-119z" />
<glyph unicode="&#xda;" horiz-adv-x="1648" d="M199 551v903h116v-899q0 -225 133.5 -360.5t374.5 -135.5q242 0 376 135.5t134 360.5v899h117v-903q0 -178 -72.5 -311.5t-214 -207t-340.5 -73.5t-339 73.5t-212.5 207t-72.5 311.5zM766 1548l246 201h135l-262 -201h-119z" />
<glyph unicode="&#xdb;" horiz-adv-x="1648" d="M199 551v903h116v-899q0 -225 133.5 -360.5t374.5 -135.5q242 0 376 135.5t134 360.5v899h117v-903q0 -178 -72.5 -311.5t-214 -207t-340.5 -73.5t-339 73.5t-212.5 207t-72.5 311.5zM508 1548l254 201h127l252 -201h-123l-193 152l-194 -152h-123z" />
<glyph unicode="&#xdc;" horiz-adv-x="1648" d="M199 551v903h116v-899q0 -225 133.5 -360.5t374.5 -135.5q242 0 376 135.5t134 360.5v899h117v-903q0 -178 -72.5 -311.5t-214 -207t-340.5 -73.5t-339 73.5t-212.5 207t-72.5 311.5zM502 1548v195h125v-195h-125zM1024 1548v195h127v-195h-127z" />
<glyph unicode="&#xdd;" horiz-adv-x="1374" d="M8 1454h137l463 -663q61 -84 76 -117h4q20 45 76 117l465 663h137l-623 -883v-571h-116v571zM627 1548l245 201h136l-263 -201h-118z" />
<glyph unicode="&#xde;" horiz-adv-x="1355" d="M236 0v1454h118v-270h488q213 0 334.5 -108.5t121.5 -299.5q0 -193 -121.5 -305.5t-332.5 -112.5h-490v-358h-118zM354 459h486q155 0 244.5 85t89.5 232q0 145 -88.5 226t-247.5 81h-484v-624z" />
<glyph unicode="&#xdf;" horiz-adv-x="1423" d="M211 0v1044q0 224 132 344.5t378 120.5q225 0 355 -96t130 -268q0 -143 -84 -232.5t-235 -105.5q195 -16 300 -117.5t105 -273.5q0 -215 -141 -324.5t-410 -109.5q-98 0 -233 22v88q117 -23 225 -22q449 0 449 342t-461 346h-191v86h181q188 2 285.5 76.5t97.5 220.5 q0 135 -98.5 207.5t-278.5 72.5q-201 0 -300.5 -95t-99.5 -292v-1034h-106z" />
<glyph unicode="&#xe0;" horiz-adv-x="1327" d="M125 262q0 133 94 209q51 41 136 67.5t227 39.5l452 36v31q0 166 -89 244t-279 78q-174 0 -275.5 -66.5t-118.5 -200.5h-112q14 166 150 261.5t356 95.5q242 0 358.5 -100.5t116.5 -311.5v-276q0 -236 22 -369h-110q-14 111 -15 240q-59 -131 -188 -202t-318 -71 q-184 0 -295.5 80t-111.5 215zM236 264q0 -100 86 -154.5t237 -54.5q137 0 245.5 49.5t169 136.5t60.5 197v97l-452 -41q-190 -18 -268 -71.5t-78 -158.5zM309 1487h137l269 -299h-111z" />
<glyph unicode="&#xe1;" horiz-adv-x="1327" d="M125 262q0 133 94 209q51 41 136 67.5t227 39.5l452 36v31q0 166 -89 244t-279 78q-174 0 -275.5 -66.5t-118.5 -200.5h-112q14 166 150 261.5t356 95.5q242 0 358.5 -100.5t116.5 -311.5v-276q0 -236 22 -369h-110q-14 111 -15 240q-59 -131 -188 -202t-318 -71 q-184 0 -295.5 80t-111.5 215zM236 264q0 -100 86 -154.5t237 -54.5q137 0 245.5 49.5t169 136.5t60.5 197v97l-452 -41q-190 -18 -268 -71.5t-78 -158.5zM606 1188l269 299h137l-295 -299h-111z" />
<glyph unicode="&#xe2;" horiz-adv-x="1327" d="M125 262q0 133 94 209q51 41 136 67.5t227 39.5l452 36v31q0 166 -89 244t-279 78q-174 0 -275.5 -66.5t-118.5 -200.5h-112q14 166 150 261.5t356 95.5q242 0 358.5 -100.5t116.5 -311.5v-276q0 -236 22 -369h-110q-14 111 -15 240q-59 -131 -188 -202t-318 -71 q-184 0 -295.5 80t-111.5 215zM236 264q0 -100 86 -154.5t237 -54.5q137 0 245.5 49.5t169 136.5t60.5 197v97l-452 -41q-190 -18 -268 -71.5t-78 -158.5zM317 1188l285 299h115l286 -299h-108l-236 244l-235 -244h-107z" />
<glyph unicode="&#xe3;" horiz-adv-x="1327" d="M125 262q0 133 94 209q51 41 136 67.5t227 39.5l452 36v31q0 166 -89 244t-279 78q-174 0 -275.5 -66.5t-118.5 -200.5h-112q14 166 150 261.5t356 95.5q242 0 358.5 -100.5t116.5 -311.5v-276q0 -236 22 -369h-110q-14 111 -15 240q-59 -131 -188 -202t-318 -71 q-184 0 -295.5 80t-111.5 215zM236 264q0 -100 86 -154.5t237 -54.5q137 0 245.5 49.5t169 136.5t60.5 197v97l-452 -41q-190 -18 -268 -71.5t-78 -158.5zM270 1233q10 100 66.5 156.5t148.5 56.5q59 0 102 -21.5t99 -64.5q49 -37 81.5 -54.5t73.5 -17.5q57 0 91 36t42 106 l80 -11q-10 -102 -67.5 -158.5t-149.5 -56.5q-59 0 -101 21.5t-97 64.5q-49 37 -82 54.5t-74 17.5q-117 0 -135 -141z" />
<glyph unicode="&#xe4;" horiz-adv-x="1327" d="M125 262q0 133 94 209q51 41 136 67.5t227 39.5l452 36v31q0 166 -89 244t-279 78q-174 0 -275.5 -66.5t-118.5 -200.5h-112q14 166 150 261.5t356 95.5q242 0 358.5 -100.5t116.5 -311.5v-276q0 -236 22 -369h-110q-14 111 -15 240q-59 -131 -188 -202t-318 -71 q-184 0 -295.5 80t-111.5 215zM236 264q0 -100 86 -154.5t237 -54.5q137 0 245.5 49.5t169 136.5t60.5 197v97l-452 -41q-190 -18 -268 -71.5t-78 -158.5zM342 1208v226h125v-226h-125zM850 1208v226h125v-226h-125z" />
<glyph unicode="&#xe5;" horiz-adv-x="1327" d="M125 262q0 133 94 209q51 41 136 67.5t227 39.5l452 36v31q0 166 -89 244t-279 78q-174 0 -275.5 -66.5t-118.5 -200.5h-112q14 166 150 261.5t356 95.5q242 0 358.5 -100.5t116.5 -311.5v-276q0 -236 22 -369h-110q-14 111 -15 240q-59 -131 -188 -202t-318 -71 q-184 0 -295.5 80t-111.5 215zM236 264q0 -100 86 -154.5t237 -54.5q137 0 245.5 49.5t169 136.5t60.5 197v97l-452 -41q-190 -18 -268 -71.5t-78 -158.5zM416 1348q0 88 66.5 142t176.5 54q111 0 176.5 -54t65.5 -142t-65.5 -142.5t-176.5 -54.5q-110 0 -176.5 54.5 t-66.5 142.5zM491 1348q0 -59 45.5 -96.5t122.5 -37.5q76 0 121 38t45 96q0 59 -45 97t-121 38q-78 0 -123 -38t-45 -97z" />
<glyph unicode="&#xe6;" horiz-adv-x="2146" d="M125 252q0 135 99.5 207.5t312.5 87.5l469 33v63q0 164 -85 244t-268 80q-174 0 -271 -69t-112 -204h-110q18 174 148 268.5t347 94.5q336 0 424 -232q63 113 177 172.5t268 59.5q238 0 371 -132t133 -368v-61h-912v-7q0 -199 108.5 -313.5t303.5 -114.5q154 0 256 68 t141 197l94 -35q-51 -156 -177 -240t-312 -84q-182 0 -306 79t-177 226q-59 -150 -195.5 -227.5t-331.5 -77.5q-182 0 -288.5 77t-106.5 208zM236 256q0 -94 80.5 -146.5t224.5 -52.5q131 0 237.5 46.5t168 132.5t61.5 200v64l-459 -33q-164 -12 -238.5 -62.5t-74.5 -148.5z M1116 582h801v12q0 176 -107.5 277.5t-285.5 101.5q-181 0 -293.5 -106.5t-114.5 -284.5z" />
<glyph unicode="&#xe7;" horiz-adv-x="1277" d="M98 512q0 256 149.5 400.5t409.5 144.5q215 0 346.5 -96.5t163.5 -278.5l-112 -12q-27 143 -130.5 218t-273.5 75q-209 0 -324.5 -117t-115.5 -332t117.5 -334t326.5 -119q164 0 267.5 74t136.5 215l106 -14q-33 -168 -156.5 -263.5t-316.5 -105.5l-67 -98q37 31 104 31 q76 0 122 -40t46 -108q0 -72 -56.5 -116t-150.5 -44q-80 0 -133 33t-70 92l82 13q10 -35 42 -54.5t79 -19.5q57 0 88 25.5t31 70.5q0 43 -30.5 67.5t-84.5 24.5q-61 0 -104 -34l-58 18l84 139q-242 10 -380 155.5t-138 389.5z" />
<glyph unicode="&#xe8;" horiz-adv-x="1296" d="M98 510q0 262 146.5 404.5t396.5 142.5q254 0 395.5 -130t141.5 -374v-59h-971q2 -209 120.5 -321t327.5 -112q162 0 269.5 68t150.5 197l92 -35q-53 -158 -185 -241t-329 -83q-262 0 -408.5 141.5t-146.5 401.5zM207 580h860v6q0 184 -115.5 284.5t-310.5 100.5 t-312.5 -104.5t-121.5 -286.5zM291 1487h137l269 -299h-111z" />
<glyph unicode="&#xe9;" horiz-adv-x="1296" d="M98 510q0 262 146.5 404.5t396.5 142.5q254 0 395.5 -130t141.5 -374v-59h-971q2 -209 120.5 -321t327.5 -112q162 0 269.5 68t150.5 197l92 -35q-53 -158 -185 -241t-329 -83q-262 0 -408.5 141.5t-146.5 401.5zM207 580h860v6q0 184 -115.5 284.5t-310.5 100.5 t-312.5 -104.5t-121.5 -286.5zM588 1188l269 299h137l-295 -299h-111z" />
<glyph unicode="&#xea;" horiz-adv-x="1296" d="M98 510q0 262 146.5 404.5t396.5 142.5q254 0 395.5 -130t141.5 -374v-59h-971q2 -209 120.5 -321t327.5 -112q162 0 269.5 68t150.5 197l92 -35q-53 -158 -185 -241t-329 -83q-262 0 -408.5 141.5t-146.5 401.5zM207 580h860v6q0 184 -115.5 284.5t-310.5 100.5 t-312.5 -104.5t-121.5 -286.5zM299 1188l285 299h115l286 -299h-108l-236 244l-235 -244h-107z" />
<glyph unicode="&#xeb;" horiz-adv-x="1296" d="M98 510q0 262 146.5 404.5t396.5 142.5q254 0 395.5 -130t141.5 -374v-59h-971q2 -209 120.5 -321t327.5 -112q162 0 269.5 68t150.5 197l92 -35q-53 -158 -185 -241t-329 -83q-262 0 -408.5 141.5t-146.5 401.5zM207 580h860v6q0 184 -115.5 284.5t-310.5 100.5 t-312.5 -104.5t-121.5 -286.5zM324 1208v226h125v-226h-125zM832 1208v226h125v-226h-125z" />
<glyph unicode="&#xec;" horiz-adv-x="546" d="M49 1487h117l158 -299h-103zM221 0v1024h105v-1024h-105z" />
<glyph unicode="&#xed;" horiz-adv-x="546" d="M221 0v1024h105v-1024h-105zM223 1188l158 299h117l-172 -299h-103z" />
<glyph unicode="&#xee;" horiz-adv-x="546" d="M55 1188l164 301h111l164 -301h-95l-125 244l-124 -244h-95zM221 0v1024h105v-1024h-105z" />
<glyph unicode="&#xef;" horiz-adv-x="546" d="M72 1208v230h125v-230h-125zM221 0v1024h105v-1024h-105zM352 1208v230h125v-230h-125z" />
<glyph unicode="&#xf0;" horiz-adv-x="1353" d="M111 510q0 162 66.5 282.5t190.5 186t289 65.5q154 0 261.5 -62t162.5 -171h4q-23 125 -85 232.5t-158 189.5l-387 -103l-25 64l344 90q-147 102 -348 139l51 72q231 -51 402 -184l223 59l22 -63l-184 -50q135 -129 207 -313t72 -412q0 -172 -70 -299t-196 -195.5 t-291 -68.5q-256 0 -403.5 145.5t-147.5 395.5zM221 510q0 -209 118 -329t325 -120q206 0 327 120t121 329q0 211 -119 328.5t-327 117.5q-209 0 -327 -118.5t-118 -327.5z" />
<glyph unicode="&#xf1;" horiz-adv-x="1421" d="M221 0v1024h103v-272q53 150 170.5 227.5t291.5 77.5q221 0 337 -122t116 -357v-578h-104v563q0 197 -95.5 298.5t-279.5 101.5q-199 0 -316.5 -121t-117.5 -324v-518h-105zM371 1233q10 100 66.5 156.5t148.5 56.5q59 0 102 -21.5t99 -64.5q49 -37 81.5 -54.5 t73.5 -17.5q57 0 91 36t42 106l80 -11q-10 -102 -67.5 -158.5t-149.5 -56.5q-59 0 -101 21.5t-97 64.5q-49 37 -82 54.5t-74 17.5q-117 0 -135 -141z" />
<glyph unicode="&#xf2;" horiz-adv-x="1318" d="M98 512q0 168 70 291t197 188.5t294 65.5q168 0 295 -65.5t197 -188.5t70 -291t-70 -291t-197 -188.5t-295 -65.5q-167 0 -294 65.5t-197 188.5t-70 291zM211 512q0 -215 121 -333t327 -118q207 0 329 118t122 333t-122 333t-329 118t-327.5 -118t-120.5 -333zM309 1487 h137l269 -299h-111z" />
<glyph unicode="&#xf3;" horiz-adv-x="1318" d="M98 512q0 168 70 291t197 188.5t294 65.5q168 0 295 -65.5t197 -188.5t70 -291t-70 -291t-197 -188.5t-295 -65.5q-167 0 -294 65.5t-197 188.5t-70 291zM211 512q0 -215 121 -333t327 -118q207 0 329 118t122 333t-122 333t-329 118t-327.5 -118t-120.5 -333zM606 1188 l269 299h137l-295 -299h-111z" />
<glyph unicode="&#xf4;" horiz-adv-x="1318" d="M98 512q0 168 70 291t197 188.5t294 65.5q168 0 295 -65.5t197 -188.5t70 -291t-70 -291t-197 -188.5t-295 -65.5q-167 0 -294 65.5t-197 188.5t-70 291zM211 512q0 -215 121 -333t327 -118q207 0 329 118t122 333t-122 333t-329 118t-327.5 -118t-120.5 -333zM317 1188 l285 299h115l286 -299h-108l-236 244l-235 -244h-107z" />
<glyph unicode="&#xf5;" horiz-adv-x="1318" d="M98 512q0 168 70 291t197 188.5t294 65.5q168 0 295 -65.5t197 -188.5t70 -291t-70 -291t-197 -188.5t-295 -65.5q-167 0 -294 65.5t-197 188.5t-70 291zM211 512q0 -215 121 -333t327 -118q207 0 329 118t122 333t-122 333t-329 118t-327.5 -118t-120.5 -333zM270 1233 q10 100 66.5 156.5t148.5 56.5q59 0 102 -21.5t99 -64.5q49 -37 81.5 -54.5t73.5 -17.5q57 0 91 36t42 106l80 -11q-10 -102 -67.5 -158.5t-149.5 -56.5q-59 0 -101 21.5t-97 64.5q-49 37 -82 54.5t-74 17.5q-117 0 -135 -141z" />
<glyph unicode="&#xf6;" horiz-adv-x="1318" d="M98 512q0 168 70 291t197 188.5t294 65.5q168 0 295 -65.5t197 -188.5t70 -291t-70 -291t-197 -188.5t-295 -65.5q-167 0 -294 65.5t-197 188.5t-70 291zM211 512q0 -215 121 -333t327 -118q207 0 329 118t122 333t-122 333t-329 118t-327.5 -118t-120.5 -333zM342 1208 v226h125v-226h-125zM850 1208v226h125v-226h-125z" />
<glyph unicode="&#xf7;" horiz-adv-x="1286" d="M123 625v92h1040v-92h-1040zM555 285q0 39 23.5 61.5t60.5 22.5t59.5 -22.5t22.5 -61.5q0 -37 -23.5 -59.5t-58.5 -22.5q-37 0 -60.5 22.5t-23.5 59.5zM555 1057q0 37 23.5 59.5t60.5 22.5q35 0 58.5 -22.5t23.5 -59.5t-22.5 -60.5t-59.5 -23.5t-60.5 22.5t-23.5 61.5z " />
<glyph unicode="&#xf8;" horiz-adv-x="1318" d="M98 512q0 168 70 291t197 188.5t294 65.5q227 0 373 -115l109 111l57 -49l-111 -113q134 -143 134 -379q0 -168 -70 -291t-197 -188.5t-295 -65.5q-225 0 -372 115l-111 -111l-55 47l112 113q-135 147 -135 381zM211 512q0 -190 96 -305l654 663q-117 92 -302 93 q-207 0 -327.5 -118t-120.5 -333zM358 156q117 -94 301 -95q207 0 329 118t122 333q0 190 -96 305z" />
<glyph unicode="&#xf9;" horiz-adv-x="1406" d="M182 434v590h105v-584q0 -199 98 -290t258 -91q139 0 237.5 60.5t148.5 159t50 215.5v530h107v-1024h-103v266q-49 -139 -168.5 -218t-285.5 -79q-226 0 -336.5 119t-110.5 346zM334 1487h137l269 -299h-111z" />
<glyph unicode="&#xfa;" horiz-adv-x="1406" d="M182 434v590h105v-584q0 -199 98 -290t258 -91q139 0 237.5 60.5t148.5 159t50 215.5v530h107v-1024h-103v266q-49 -139 -168.5 -218t-285.5 -79q-226 0 -336.5 119t-110.5 346zM631 1188l269 299h137l-295 -299h-111z" />
<glyph unicode="&#xfb;" horiz-adv-x="1406" d="M182 434v590h105v-584q0 -199 98 -290t258 -91q139 0 237.5 60.5t148.5 159t50 215.5v530h107v-1024h-103v266q-49 -139 -168.5 -218t-285.5 -79q-226 0 -336.5 119t-110.5 346zM342 1188l285 299h115l286 -299h-108l-236 244l-235 -244h-107z" />
<glyph unicode="&#xfc;" horiz-adv-x="1406" d="M182 434v590h105v-584q0 -199 98 -290t258 -91q139 0 237.5 60.5t148.5 159t50 215.5v530h107v-1024h-103v266q-49 -139 -168.5 -218t-285.5 -79q-226 0 -336.5 119t-110.5 346zM367 1208v226h125v-226h-125zM875 1208v226h125v-226h-125z" />
<glyph unicode="&#xfd;" horiz-adv-x="1142" d="M23 1024h118l377 -772q43 -92 68 -160h4q12 37 63 158l355 774h112l-504 -1090q-86 -188 -186 -269t-258 -81q-45 0 -92 8v93q43 -6 80 -7q135 0 214 66t132 188l29 64zM518 1188l269 299h137l-295 -299h-111z" />
<glyph unicode="&#xfe;" horiz-adv-x="1439" d="M225 -399v1884h107v-715q55 133 182 210t293 77q160 0 278.5 -65.5t183 -188.5t64.5 -289q0 -162 -65.5 -286t-186 -192.5t-280.5 -68.5t-287 73t-182 198v-637h-107zM330 485q0 -123 55 -219t156.5 -150.5t234.5 -54.5q207 0 327 121t120 332t-116 330t-323 119 q-133 0 -236.5 -55.5t-160.5 -152t-57 -214.5v-56z" />
<glyph unicode="&#xff;" horiz-adv-x="1142" d="M23 1024h118l377 -772q43 -92 68 -160h4q12 37 63 158l355 774h112l-504 -1090q-86 -188 -186 -269t-258 -81q-45 0 -92 8v93q43 -6 80 -7q135 0 214 66t132 188l29 64zM254 1208v226h125v-226h-125zM762 1208v226h125v-226h-125z" />
<glyph unicode="&#x152;" horiz-adv-x="2516" d="M96 737q0 225 93.5 387t265.5 246t401 84h1501v-98h-958v-561h923v-99h-923v-598h973v-98h-1530q-221 0 -390 90t-262.5 257t-93.5 390zM217 737q0 -193 77 -337t218 -222t326 -78h444v1254h-426q-299 0 -469 -162t-170 -455z" />
<glyph unicode="&#x153;" horiz-adv-x="2306" d="M98 512q0 164 67.5 287t194.5 190.5t299 67.5q180 0 309.5 -74t190.5 -207q61 137 188.5 209t303.5 72q254 0 395 -130t141 -374v-59h-970q2 -209 120.5 -321t327.5 -112q162 0 269.5 68t150.5 197l92 -35q-53 -158 -185 -241t-329 -83q-184 0 -313 72t-191 207 q-63 -133 -191 -206t-309 -73q-172 0 -299 67.5t-194.5 190.5t-67.5 287zM211 512q0 -211 119 -331t329 -120q201 0 320 109t129 301v39v41q-10 195 -129 303.5t-320 108.5q-211 0 -329.5 -120t-118.5 -331zM1217 580h860v6q0 184 -116 284.5t-310 100.5 q-195 0 -312.5 -104.5t-121.5 -286.5z" />
<glyph unicode="&#x178;" horiz-adv-x="1374" d="M8 1454h137l463 -663q61 -84 76 -117h4q20 45 76 117l465 663h137l-623 -883v-571h-116v571zM362 1548v195h125v-195h-125zM885 1548v195h127v-195h-127z" />
<glyph unicode="&#x2c6;" horiz-adv-x="1228" d="M63 1188l285 299h115l286 -299h-108l-236 244l-235 -244h-107z" />
<glyph unicode="&#x2dc;" horiz-adv-x="1228" d="M115 1233q10 100 66.5 156.5t148.5 56.5q59 0 102 -21.5t99 -64.5q49 -37 81.5 -54.5t73.5 -17.5q57 0 91 36t42 106l80 -11q-10 -102 -67.5 -158.5t-149.5 -56.5q-59 0 -101 21.5t-97 64.5q-49 37 -82 54.5t-74 17.5q-117 0 -135 -141z" />
<glyph unicode="&#x2000;" horiz-adv-x="953" />
<glyph unicode="&#x2001;" horiz-adv-x="1907" />
<glyph unicode="&#x2002;" horiz-adv-x="953" />
<glyph unicode="&#x2003;" horiz-adv-x="1907" />
<glyph unicode="&#x2004;" horiz-adv-x="635" />
<glyph unicode="&#x2005;" horiz-adv-x="476" />
<glyph unicode="&#x2006;" horiz-adv-x="317" />
<glyph unicode="&#x2007;" horiz-adv-x="317" />
<glyph unicode="&#x2008;" horiz-adv-x="238" />
<glyph unicode="&#x2009;" horiz-adv-x="381" />
<glyph unicode="&#x200a;" horiz-adv-x="105" />
<glyph unicode="&#x2010;" horiz-adv-x="1005" d="M123 522v99h760v-99h-760z" />
<glyph unicode="&#x2011;" horiz-adv-x="1005" d="M123 522v99h760v-99h-760z" />
<glyph unicode="&#x2012;" horiz-adv-x="1005" d="M123 522v99h760v-99h-760z" />
<glyph unicode="&#x2013;" horiz-adv-x="1310" d="M123 528v84h1067v-84h-1067z" />
<glyph unicode="&#x2014;" horiz-adv-x="1886" d="M123 528v84h1640v-84h-1640z" />
<glyph unicode="&#x2018;" horiz-adv-x="495" d="M170 1006v200q0 106 31.5 167t109.5 100l31 -56q-59 -33 -78.5 -76t-19.5 -114v-4h75v-217h-149z" />
<glyph unicode="&#x2019;" horiz-adv-x="495" d="M154 1042q59 33 78.5 76t19.5 115v4h-76v217h150v-201q0 -106 -32 -166.5t-110 -99.5z" />
<glyph unicode="&#x201a;" horiz-adv-x="495" d="M154 -195q59 33 78.5 76t19.5 115v4h-76v217h150v-201q0 -106 -32 -166.5t-110 -99.5z" />
<glyph unicode="&#x201c;" horiz-adv-x="776" d="M170 1008v200q0 106 31.5 167t109.5 100l31 -56q-59 -33 -78.5 -76t-19.5 -114v-4h75v-217h-149zM451 1008v200q0 106 31.5 167t109.5 100l31 -56q-59 -33 -79 -76t-20 -114v-4h76v-217h-149z" />
<glyph unicode="&#x201d;" horiz-adv-x="776" d="M154 1042q59 33 78.5 76t19.5 115v4h-76v217h150v-201q0 -106 -32 -166.5t-110 -99.5zM434 1042q59 33 78.5 76t19.5 115v4h-75v217h149v-201q0 -106 -31.5 -166.5t-109.5 -99.5z" />
<glyph unicode="&#x201e;" horiz-adv-x="776" d="M154 -195q59 33 78.5 76t19.5 115v4h-76v217h150v-201q0 -106 -32 -166.5t-110 -99.5zM434 -195q59 33 78.5 76t19.5 115v4h-75v217h149v-201q0 -106 -31.5 -166.5t-109.5 -99.5z" />
<glyph unicode="&#x2022;" horiz-adv-x="591" d="M172 709q0 55 34 88.5t89 33.5t90 -33.5t35 -88.5t-35 -89t-90 -34t-89 33.5t-34 89.5z" />
<glyph unicode="&#x2026;" horiz-adv-x="1691" d="M172 0v205h145v-205h-145zM774 0v205h146v-205h-146zM1374 0v205h146v-205h-146z" />
<glyph unicode="&#x202f;" horiz-adv-x="381" />
<glyph unicode="&#x2039;" horiz-adv-x="698" d="M86 563l416 424h119l-406 -422l401 -428h-122z" />
<glyph unicode="&#x203a;" horiz-adv-x="698" d="M78 987h119l415 -424l-407 -426h-123l401 428z" />
<glyph unicode="&#x205f;" horiz-adv-x="476" />
<glyph unicode="&#x20ac;" horiz-adv-x="1601" d="M23 551v78h161q-4 66 -4 100q0 37 4 102h-161v78h172q45 258 226 405.5t484 147.5q215 0 370 -86t220 -243l-100 -48q-57 133 -186.5 206t-309.5 73q-254 0 -400.5 -119t-187.5 -336h842v-78h-854q-4 -66 -4 -100q0 -37 4 -102h854v-78h-842q43 -227 193.5 -358.5 t390.5 -131.5q166 0 304 74t208 225l92 -43q-70 -168 -230.5 -260t-375.5 -92q-305 0 -480 159t-218 427h-172z" />
<glyph unicode="&#x2122;" horiz-adv-x="1945" d="M10 1386v72h776v-72h-354v-759h-86v759h-336zM881 627v831h120l291 -627q35 -74 56 -133h4q18 53 53 133l291 627h121v-831h-82v624q0 78 4 123h-2l-49 -110l-299 -637h-82l-295 637l-21 45q-8 16 -28 65h-2q2 -45 2 -123v-624h-82z" />
<glyph unicode="&#x25fc;" horiz-adv-x="1024" d="M0 0v1024h1024v-1024h-1024z" />
</font>
</defs>
</svg>
